<svg width="1128" height="310" viewBox="0 0 1128 310" fill="none" xmlns="http://www.w3.org/2000/svg">
<path d="M179 268C179 247.514 174.965 227.228 167.125 208.301C159.286 189.375 147.795 172.177 133.309 157.691C118.823 143.205 101.626 131.715 82.6988 123.875C63.7721 116.035 43.4864 112 23.0002 112C23.0002 112 21.4001 127.167 23.0002 140.849C24.2902 151.879 23.0002 162 23.0002 162C81.5424 162 129 209.458 129 268H179Z" fill="#172554"/>
<path fill-rule="evenodd" clip-rule="evenodd" d="M167.125 101.699C174.965 82.7718 179 62.4862 179 42L154 42L129 42C129 100.542 81.5423 148 23.0001 148L16.1719 161.7L23.0001 198C43.4863 198 63.7719 193.965 82.6987 186.125C101.625 178.285 118.823 166.795 133.309 152.309C147.795 137.823 159.286 120.625 167.125 101.699Z" fill="#1E40AF"/>
<path fill-rule="evenodd" clip-rule="evenodd" d="M281.79 168.046L287 148C228.458 148 181 100.542 181 42L156 42L131 42C131 62.4862 135.035 82.7718 142.875 101.699C150.715 120.625 162.205 137.823 176.691 152.309C191.177 166.795 208.375 178.285 227.301 186.125C246.228 193.965 266.514 198 287 198L281.79 168.046Z" fill="#172554"/>
<path fill-rule="evenodd" clip-rule="evenodd" d="M261.432 165.104C218.724 175.681 186.231 212.153 181.575 256.899C176.983 263.21 134.725 266.98 131.38 257.126C132.551 240.361 136.426 223.871 142.875 208.301C150.715 189.374 162.206 172.177 176.692 157.691C191.178 143.205 208.375 131.714 227.302 123.874C235.958 120.289 244.899 117.499 254.013 115.527C254.013 115.527 269.591 126.321 271.835 138.532C273.9 149.769 261.432 165.104 261.432 165.104Z" fill="#1E40AF"/>
<path fill-rule="evenodd" clip-rule="evenodd" d="M311.987 154C311.733 134.195 307.71 114.612 300.125 96.3014C292.285 77.3746 280.795 60.1773 266.309 45.6914C251.823 31.2054 234.625 19.7145 215.699 11.8748C196.772 4.03506 176.486 3.4118e-06 156 0C135.514 0 115.228 4.03506 96.3014 11.8748C77.3746 19.7145 60.1773 31.2054 45.6914 45.6913C31.2054 60.1773 19.7145 77.3746 11.8748 96.3014C4.29027 114.612 0.26674 134.195 0.0128201 154H0C2.91466e-08 154.333 0.00106878 154.667 0.00320525 155C0.00106878 155.333 2.91466e-08 155.667 0 156H0.0128201C0.26674 175.806 4.29027 195.388 11.8748 213.699C19.7145 232.625 31.2054 249.823 45.6914 264.309C60.1773 278.795 77.3746 290.285 96.3014 298.125C115.228 305.965 135.514 310 156 310C176.486 310 196.772 305.965 215.699 298.125C234.625 290.285 251.823 278.795 266.309 264.309C280.795 249.823 292.285 232.625 300.125 213.699C307.71 195.388 311.733 175.805 311.987 156H312C312 155.667 311.999 155.333 311.997 155C311.999 154.667 312 154.333 312 154H311.987ZM261.995 155C261.459 96.9183 214.208 50 156 50C97.7915 50 50.5414 96.9183 50.0046 155C50.5414 213.082 97.7915 260 156 260C214.208 260 261.459 213.082 261.995 155Z" fill="white"/>
<path d="M513.984 90.184V229H491.232V139.336C491.232 135.752 491.424 131.88 491.808 127.72L449.856 206.536C447.872 210.312 444.832 212.2 440.736 212.2H437.088C432.992 212.2 429.952 210.312 427.968 206.536L385.536 127.432C385.728 129.544 385.888 131.624 386.016 133.672C386.144 135.72 386.208 137.608 386.208 139.336V229H363.456V90.184H382.944C384.096 90.184 385.088 90.216 385.92 90.28C386.752 90.344 387.488 90.504 388.128 90.76C388.832 91.016 389.44 91.432 389.952 92.008C390.528 92.584 391.072 93.352 391.584 94.312L433.152 171.4C434.24 173.448 435.232 175.56 436.128 177.736C437.088 179.912 438.016 182.152 438.912 184.456C439.808 182.088 440.736 179.816 441.696 177.64C442.656 175.4 443.68 173.256 444.768 171.208L485.76 94.312C486.272 93.352 486.816 92.584 487.392 92.008C487.968 91.432 488.576 91.016 489.216 90.76C489.92 90.504 490.688 90.344 491.52 90.28C492.352 90.216 493.344 90.184 494.496 90.184H513.984ZM564.476 130.504V229H540.668V130.504H564.476ZM567.74 101.8C567.74 103.848 567.324 105.768 566.492 107.56C565.66 109.352 564.54 110.92 563.132 112.264C561.788 113.608 560.188 114.696 558.332 115.528C556.476 116.296 554.492 116.68 552.38 116.68C550.332 116.68 548.38 116.296 546.524 115.528C544.732 114.696 543.164 113.608 541.82 112.264C540.476 110.92 539.388 109.352 538.556 107.56C537.788 105.768 537.404 103.848 537.404 101.8C537.404 99.688 537.788 97.704 538.556 95.848C539.388 93.992 540.476 92.392 541.82 91.048C543.164 89.704 544.732 88.648 546.524 87.88C548.38 87.048 550.332 86.632 552.38 86.632C554.492 86.632 556.476 87.048 558.332 87.88C560.188 88.648 561.788 89.704 563.132 91.048C564.54 92.392 565.66 93.992 566.492 95.848C567.324 97.704 567.74 99.688 567.74 101.8ZM650.474 155.656C647.85 152.392 644.938 150.088 641.738 148.744C638.538 147.4 635.114 146.728 631.466 146.728C627.882 146.728 624.65 147.4 621.77 148.744C618.89 150.088 616.426 152.136 614.378 154.888C612.33 157.576 610.762 161.032 609.674 165.256C608.586 169.416 608.042 174.344 608.042 180.04C608.042 185.8 608.49 190.696 609.386 194.728C610.346 198.696 611.69 201.96 613.418 204.52C615.146 207.016 617.258 208.84 619.754 209.992C622.25 211.08 625.034 211.624 628.106 211.624C633.034 211.624 637.226 210.6 640.682 208.552C644.138 206.504 647.402 203.592 650.474 199.816V155.656ZM674.186 130.504V261.16H650.474V216.52C646.57 220.68 642.154 224.04 637.226 226.6C632.298 229.16 626.57 230.44 620.042 230.44C614.666 230.44 609.738 229.32 605.258 227.08C600.778 224.84 596.906 221.608 593.642 217.384C590.442 213.096 587.946 207.816 586.154 201.544C584.426 195.272 583.562 188.104 583.562 180.04C583.562 172.744 584.554 165.96 586.538 159.688C588.522 153.416 591.37 147.976 595.082 143.368C598.794 138.76 603.242 135.176 608.426 132.616C613.61 129.992 619.434 128.68 625.898 128.68C632.042 128.68 637.194 129.736 641.354 131.848C645.514 133.96 649.226 136.808 652.49 140.392L653.738 134.824C654.57 131.944 656.554 130.504 659.69 130.504H674.186ZM782.451 130.504V229H767.955C764.819 229 762.835 227.56 762.003 224.68L760.371 216.808C756.339 220.904 751.891 224.232 747.027 226.792C742.163 229.288 736.435 230.536 729.843 230.536C724.467 230.536 719.699 229.64 715.539 227.848C711.443 225.992 707.987 223.4 705.171 220.072C702.355 216.744 700.211 212.808 698.739 208.264C697.331 203.656 696.627 198.6 696.627 193.096V130.504H720.339V193.096C720.339 199.112 721.715 203.784 724.467 207.112C727.283 210.376 731.475 212.008 737.043 212.008C741.139 212.008 744.979 211.112 748.563 209.32C752.147 207.464 755.539 204.936 758.739 201.736V130.504H782.451ZM869.418 168.424C869.418 165.352 868.97 162.472 868.074 159.784C867.242 157.032 865.962 154.632 864.234 152.584C862.506 150.536 860.298 148.936 857.61 147.784C854.986 146.568 851.914 145.96 848.394 145.96C841.546 145.96 836.138 147.912 832.17 151.816C828.266 155.72 825.77 161.256 824.682 168.424H869.418ZM824.202 182.728C824.586 187.784 825.482 192.168 826.89 195.88C828.298 199.528 830.154 202.568 832.458 205C834.762 207.368 837.482 209.16 840.618 210.376C843.818 211.528 847.338 212.104 851.178 212.104C855.018 212.104 858.314 211.656 861.066 210.76C863.882 209.864 866.314 208.872 868.362 207.784C870.474 206.696 872.298 205.704 873.834 204.808C875.434 203.912 876.97 203.464 878.442 203.464C880.426 203.464 881.898 204.2 882.858 205.672L889.674 214.312C887.05 217.384 884.106 219.976 880.842 222.088C877.578 224.136 874.154 225.8 870.57 227.08C867.05 228.296 863.434 229.16 859.722 229.672C856.074 230.184 852.522 230.44 849.066 230.44C842.218 230.44 835.85 229.32 829.962 227.08C824.074 224.776 818.954 221.416 814.602 217C810.25 212.52 806.826 207.016 804.33 200.488C801.834 193.896 800.586 186.28 800.586 177.64C800.586 170.92 801.674 164.616 803.85 158.728C806.026 152.776 809.13 147.624 813.162 143.272C817.258 138.856 822.218 135.368 828.042 132.808C833.93 130.248 840.554 128.968 847.914 128.968C854.122 128.968 859.85 129.96 865.098 131.944C870.346 133.928 874.858 136.84 878.634 140.68C882.41 144.456 885.354 149.128 887.466 154.696C889.642 160.2 890.73 166.504 890.73 173.608C890.73 177.192 890.346 179.624 889.578 180.904C888.81 182.12 887.338 182.728 885.162 182.728H824.202ZM933.101 130.504V229H909.293V130.504H933.101ZM936.365 101.8C936.365 103.848 935.949 105.768 935.117 107.56C934.285 109.352 933.165 110.92 931.757 112.264C930.413 113.608 928.813 114.696 926.957 115.528C925.101 116.296 923.117 116.68 921.005 116.68C918.957 116.68 917.005 116.296 915.149 115.528C913.357 114.696 911.789 113.608 910.445 112.264C909.101 110.92 908.013 109.352 907.181 107.56C906.413 105.768 906.029 103.848 906.029 101.8C906.029 99.688 906.413 97.704 907.181 95.848C908.013 93.992 909.101 92.392 910.445 91.048C911.789 89.704 913.357 88.648 915.149 87.88C917.005 87.048 918.957 86.632 921.005 86.632C923.117 86.632 925.101 87.048 926.957 87.88C928.813 88.648 930.413 89.704 931.757 91.048C933.165 92.392 934.285 93.992 935.117 95.848C935.949 97.704 936.365 99.688 936.365 101.8ZM1009.31 186.952C1002.46 187.272 996.699 187.88 992.027 188.776C987.355 189.608 983.611 190.696 980.795 192.04C977.979 193.384 975.963 194.952 974.747 196.744C973.531 198.536 972.923 200.488 972.923 202.6C972.923 206.76 974.139 209.736 976.571 211.528C979.067 213.32 982.299 214.216 986.267 214.216C991.131 214.216 995.323 213.352 998.843 211.624C1002.43 209.832 1005.91 207.144 1009.31 203.56V186.952ZM954.971 144.232C966.299 133.864 979.931 128.68 995.867 128.68C1001.63 128.68 1006.78 129.64 1011.32 131.56C1015.87 133.416 1019.71 136.04 1022.84 139.432C1025.98 142.76 1028.35 146.76 1029.95 151.432C1031.61 156.104 1032.44 161.224 1032.44 166.792V229H1021.69C1019.45 229 1017.72 228.68 1016.51 228.04C1015.29 227.336 1014.33 225.96 1013.63 223.912L1011.51 216.808C1009.02 219.048 1006.59 221.032 1004.22 222.76C1001.85 224.424 999.387 225.832 996.827 226.984C994.267 228.136 991.515 229 988.571 229.576C985.691 230.216 982.491 230.536 978.971 230.536C974.811 230.536 970.971 229.992 967.451 228.904C963.931 227.752 960.891 226.056 958.331 223.816C955.771 221.576 953.787 218.792 952.379 215.464C950.971 212.136 950.267 208.264 950.267 203.848C950.267 201.352 950.683 198.888 951.515 196.456C952.347 193.96 953.691 191.592 955.547 189.352C957.467 187.112 959.931 185 962.939 183.016C965.947 181.032 969.627 179.304 973.979 177.832C978.395 176.36 983.515 175.176 989.339 174.28C995.163 173.32 1001.82 172.744 1009.31 172.552V166.792C1009.31 160.2 1007.9 155.336 1005.08 152.2C1002.27 149 998.203 147.4 992.891 147.4C989.051 147.4 985.851 147.848 983.291 148.744C980.795 149.64 978.587 150.664 976.667 151.816C974.747 152.904 972.987 153.896 971.387 154.792C969.851 155.688 968.123 156.136 966.203 156.136C964.539 156.136 963.131 155.72 961.979 154.888C960.827 153.992 959.899 152.968 959.195 151.816L954.971 144.232ZM1114.87 149.704C1114.23 150.728 1113.56 151.464 1112.85 151.912C1112.15 152.296 1111.25 152.488 1110.17 152.488C1109.01 152.488 1107.77 152.168 1106.42 151.528C1105.14 150.888 1103.64 150.184 1101.91 149.416C1100.18 148.584 1098.2 147.848 1095.96 147.208C1093.78 146.568 1091.19 146.248 1088.18 146.248C1083.51 146.248 1079.83 147.24 1077.14 149.224C1074.52 151.208 1073.21 153.8 1073.21 157C1073.21 159.112 1073.88 160.904 1075.22 162.376C1076.63 163.784 1078.45 165.032 1080.69 166.12C1083 167.208 1085.59 168.2 1088.47 169.096C1091.35 169.928 1094.26 170.856 1097.21 171.88C1100.21 172.904 1103.16 174.088 1106.04 175.432C1108.92 176.712 1111.48 178.376 1113.72 180.424C1116.02 182.408 1117.85 184.808 1119.19 187.624C1120.6 190.44 1121.3 193.832 1121.3 197.8C1121.3 202.536 1120.44 206.92 1118.71 210.952C1117.05 214.92 1114.55 218.376 1111.22 221.32C1107.89 224.2 1103.77 226.472 1098.84 228.136C1093.97 229.736 1088.34 230.536 1081.94 230.536C1078.55 230.536 1075.22 230.216 1071.96 229.576C1068.76 229 1065.65 228.168 1062.65 227.08C1059.7 225.992 1056.95 224.712 1054.39 223.24C1051.89 221.768 1049.69 220.168 1047.77 218.44L1053.24 209.416C1053.94 208.328 1054.77 207.496 1055.73 206.92C1056.69 206.344 1057.91 206.056 1059.38 206.056C1060.85 206.056 1062.23 206.472 1063.51 207.304C1064.85 208.136 1066.39 209.032 1068.12 209.992C1069.85 210.952 1071.86 211.848 1074.17 212.68C1076.53 213.512 1079.51 213.928 1083.09 213.928C1085.91 213.928 1088.31 213.608 1090.29 212.968C1092.34 212.264 1094.01 211.368 1095.29 210.28C1096.63 209.192 1097.59 207.944 1098.17 206.536C1098.81 205.064 1099.13 203.56 1099.13 202.024C1099.13 199.72 1098.42 197.832 1097.01 196.36C1095.67 194.888 1093.85 193.608 1091.54 192.52C1089.3 191.432 1086.71 190.472 1083.77 189.64C1080.89 188.744 1077.91 187.784 1074.84 186.76C1071.83 185.736 1068.85 184.552 1065.91 183.208C1063.03 181.8 1060.44 180.04 1058.13 177.928C1055.89 175.816 1054.07 173.224 1052.66 170.152C1051.32 167.08 1050.65 163.368 1050.65 159.016C1050.65 154.984 1051.45 151.144 1053.05 147.496C1054.65 143.848 1056.98 140.68 1060.05 137.992C1063.19 135.24 1067.06 133.064 1071.67 131.464C1076.34 129.8 1081.72 128.968 1087.8 128.968C1094.58 128.968 1100.76 130.088 1106.33 132.328C1111.89 134.568 1116.53 137.512 1120.25 141.16L1114.87 149.704Z" fill="white"/>
</svg>
